<?xml version="1.0" encoding="UTF-8" ?>
<svg width="96" height="64" viewBox="0 0 96 64" xmlns="http://www.w3.org/2000/svg">
	<rect x="3" y="1" width="1" height="1" />
	<rect x="4" y="1" width="1" height="1" />
	<rect x="8" y="1" width="1" height="1" />
	<rect x="9" y="1" width="1" height="1" />
	<rect x="22" y="1" width="1" height="1" />
	<rect x="23" y="1" width="1" height="1" />
	<rect x="33" y="1" width="1" height="1" />
	<rect x="34" y="1" width="1" height="1" />
	<rect x="37" y="1" width="1" height="1" />
	<rect x="38" y="1" width="1" height="1" />
	<rect x="39" y="1" width="1" height="1" />
	<rect x="40" y="1" width="1" height="1" />
	<rect x="41" y="1" width="1" height="1" />
	<rect x="44" y="1" width="1" height="1" />
	<rect x="45" y="1" width="1" height="1" />
	<rect x="46" y="1" width="1" height="1" />
	<rect x="49" y="1" width="1" height="1" />
	<rect x="50" y="1" width="1" height="1" />
	<rect x="51" y="1" width="1" height="1" />
	<rect x="52" y="1" width="1" height="1" />
	<rect x="53" y="1" width="1" height="1" />
	<rect x="61" y="1" width="1" height="1" />
	<rect x="62" y="1" width="1" height="1" />
	<rect x="63" y="1" width="1" height="1" />
	<rect x="64" y="1" width="1" height="1" />
	<rect x="65" y="1" width="1" height="1" />
	<rect x="67" y="1" width="1" height="1" />
	<rect x="68" y="1" width="1" height="1" />
	<rect x="69" y="1" width="1" height="1" />
	<rect x="70" y="1" width="1" height="1" />
	<rect x="71" y="1" width="1" height="1" />
	<rect x="74" y="1" width="1" height="1" />
	<rect x="75" y="1" width="1" height="1" />
	<rect x="76" y="1" width="1" height="1" />
	<rect x="80" y="1" width="1" height="1" />
	<rect x="81" y="1" width="1" height="1" />
	<rect x="82" y="1" width="1" height="1" />
	<rect x="85" y="1" width="1" height="1" />
	<rect x="86" y="1" width="1" height="1" />
	<rect x="87" y="1" width="1" height="1" />
	<rect x="88" y="1" width="1" height="1" />
	<rect x="89" y="1" width="1" height="1" />
	<rect x="91" y="1" width="1" height="1" />
	<rect x="92" y="1" width="1" height="1" />
	<rect x="93" y="1" width="1" height="1" />
	<rect x="94" y="1" width="1" height="1" />
	<rect x="95" y="1" width="1" height="1" />
	<rect x="2" y="2" width="1" height="1" />
	<rect x="5" y="2" width="1" height="1" />
	<rect x="9" y="2" width="1" height="1" />
	<rect x="14" y="2" width="1" height="1" />
	<rect x="15" y="2" width="1" height="1" />
	<rect x="16" y="2" width="1" height="1" />
	<rect x="17" y="2" width="1" height="1" />
	<rect x="21" y="2" width="1" height="1" />
	<rect x="32" y="2" width="1" height="1" />
	<rect x="40" y="2" width="1" height="1" />
	<rect x="43" y="2" width="1" height="1" />
	<rect x="47" y="2" width="1" height="1" />
	<rect x="53" y="2" width="1" height="1" />
	<rect x="61" y="2" width="1" height="1" />
	<rect x="67" y="2" width="1" height="1" />
	<rect x="73" y="2" width="1" height="1" />
	<rect x="77" y="2" width="1" height="1" />
	<rect x="79" y="2" width="1" height="1" />
	<rect x="83" y="2" width="1" height="1" />
	<rect x="85" y="2" width="1" height="1" />
	<rect x="94" y="2" width="1" height="1" />
	<rect x="2" y="3" width="1" height="1" />
	<rect x="9" y="3" width="1" height="1" />
	<rect x="13" y="3" width="1" height="1" />
	<rect x="17" y="3" width="1" height="1" />
	<rect x="21" y="3" width="1" height="1" />
	<rect x="26" y="3" width="1" height="1" />
	<rect x="27" y="3" width="1" height="1" />
	<rect x="28" y="3" width="1" height="1" />
	<rect x="31" y="3" width="1" height="1" />
	<rect x="39" y="3" width="1" height="1" />
	<rect x="43" y="3" width="1" height="1" />
	<rect x="47" y="3" width="1" height="1" />
	<rect x="52" y="3" width="1" height="1" />
	<rect x="56" y="3" width="1" height="1" />
	<rect x="57" y="3" width="1" height="1" />
	<rect x="58" y="3" width="1" height="1" />
	<rect x="61" y="3" width="1" height="1" />
	<rect x="62" y="3" width="1" height="1" />
	<rect x="63" y="3" width="1" height="1" />
	<rect x="64" y="3" width="1" height="1" />
	<rect x="67" y="3" width="1" height="1" />
	<rect x="68" y="3" width="1" height="1" />
	<rect x="69" y="3" width="1" height="1" />
	<rect x="70" y="3" width="1" height="1" />
	<rect x="77" y="3" width="1" height="1" />
	<rect x="79" y="3" width="1" height="1" />
	<rect x="82" y="3" width="1" height="1" />
	<rect x="83" y="3" width="1" height="1" />
	<rect x="85" y="3" width="1" height="1" />
	<rect x="86" y="3" width="1" height="1" />
	<rect x="87" y="3" width="1" height="1" />
	<rect x="88" y="3" width="1" height="1" />
	<rect x="93" y="3" width="1" height="1" />
	<rect x="1" y="4" width="1" height="1" />
	<rect x="2" y="4" width="1" height="1" />
	<rect x="3" y="4" width="1" height="1" />
	<rect x="9" y="4" width="1" height="1" />
	<rect x="13" y="4" width="1" height="1" />
	<rect x="17" y="4" width="1" height="1" />
	<rect x="20" y="4" width="1" height="1" />
	<rect x="25" y="4" width="1" height="1" />
	<rect x="31" y="4" width="1" height="1" />
	<rect x="32" y="4" width="1" height="1" />
	<rect x="33" y="4" width="1" height="1" />
	<rect x="34" y="4" width="1" height="1" />
	<rect x="40" y="4" width="1" height="1" />
	<rect x="44" y="4" width="1" height="1" />
	<rect x="45" y="4" width="1" height="1" />
	<rect x="46" y="4" width="1" height="1" />
	<rect x="47" y="4" width="1" height="1" />
	<rect x="51" y="4" width="1" height="1" />
	<rect x="55" y="4" width="1" height="1" />
	<rect x="65" y="4" width="1" height="1" />
	<rect x="71" y="4" width="1" height="1" />
	<rect x="76" y="4" width="1" height="1" />
	<rect x="79" y="4" width="1" height="1" />
	<rect x="81" y="4" width="1" height="1" />
	<rect x="83" y="4" width="1" height="1" />
	<rect x="89" y="4" width="1" height="1" />
	<rect x="94" y="4" width="1" height="1" />
	<rect x="2" y="5" width="1" height="1" />
	<rect x="9" y="5" width="1" height="1" />
	<rect x="14" y="5" width="1" height="1" />
	<rect x="15" y="5" width="1" height="1" />
	<rect x="16" y="5" width="1" height="1" />
	<rect x="17" y="5" width="1" height="1" />
	<rect x="21" y="5" width="1" height="1" />
	<rect x="25" y="5" width="1" height="1" />
	<rect x="31" y="5" width="1" height="1" />
	<rect x="35" y="5" width="1" height="1" />
	<rect x="41" y="5" width="1" height="1" />
	<rect x="47" y="5" width="1" height="1" />
	<rect x="50" y="5" width="1" height="1" />
	<rect x="55" y="5" width="1" height="1" />
	<rect x="65" y="5" width="1" height="1" />
	<rect x="71" y="5" width="1" height="1" />
	<rect x="75" y="5" width="1" height="1" />
	<rect x="79" y="5" width="1" height="1" />
	<rect x="80" y="5" width="1" height="1" />
	<rect x="83" y="5" width="1" height="1" />
	<rect x="89" y="5" width="1" height="1" />
	<rect x="95" y="5" width="1" height="1" />
	<rect x="2" y="6" width="1" height="1" />
	<rect x="9" y="6" width="1" height="1" />
	<rect x="17" y="6" width="1" height="1" />
	<rect x="21" y="6" width="1" height="1" />
	<rect x="25" y="6" width="1" height="1" />
	<rect x="29" y="6" width="1" height="1" />
	<rect x="31" y="6" width="1" height="1" />
	<rect x="35" y="6" width="1" height="1" />
	<rect x="37" y="6" width="1" height="1" />
	<rect x="41" y="6" width="1" height="1" />
	<rect x="46" y="6" width="1" height="1" />
	<rect x="50" y="6" width="1" height="1" />
	<rect x="55" y="6" width="1" height="1" />
	<rect x="59" y="6" width="1" height="1" />
	<rect x="61" y="6" width="1" height="1" />
	<rect x="65" y="6" width="1" height="1" />
	<rect x="67" y="6" width="1" height="1" />
	<rect x="71" y="6" width="1" height="1" />
	<rect x="74" y="6" width="1" height="1" />
	<rect x="79" y="6" width="1" height="1" />
	<rect x="83" y="6" width="1" height="1" />
	<rect x="85" y="6" width="1" height="1" />
	<rect x="89" y="6" width="1" height="1" />
	<rect x="91" y="6" width="1" height="1" />
	<rect x="95" y="6" width="1" height="1" />
	<rect x="2" y="7" width="1" height="1" />
	<rect x="8" y="7" width="1" height="1" />
	<rect x="9" y="7" width="1" height="1" />
	<rect x="10" y="7" width="1" height="1" />
	<rect x="14" y="7" width="1" height="1" />
	<rect x="15" y="7" width="1" height="1" />
	<rect x="16" y="7" width="1" height="1" />
	<rect x="22" y="7" width="1" height="1" />
	<rect x="23" y="7" width="1" height="1" />
	<rect x="26" y="7" width="1" height="1" />
	<rect x="27" y="7" width="1" height="1" />
	<rect x="28" y="7" width="1" height="1" />
	<rect x="32" y="7" width="1" height="1" />
	<rect x="33" y="7" width="1" height="1" />
	<rect x="34" y="7" width="1" height="1" />
	<rect x="38" y="7" width="1" height="1" />
	<rect x="39" y="7" width="1" height="1" />
	<rect x="40" y="7" width="1" height="1" />
	<rect x="44" y="7" width="1" height="1" />
	<rect x="45" y="7" width="1" height="1" />
	<rect x="50" y="7" width="1" height="1" />
	<rect x="56" y="7" width="1" height="1" />
	<rect x="57" y="7" width="1" height="1" />
	<rect x="58" y="7" width="1" height="1" />
	<rect x="62" y="7" width="1" height="1" />
	<rect x="63" y="7" width="1" height="1" />
	<rect x="64" y="7" width="1" height="1" />
	<rect x="68" y="7" width="1" height="1" />
	<rect x="69" y="7" width="1" height="1" />
	<rect x="70" y="7" width="1" height="1" />
	<rect x="73" y="7" width="1" height="1" />
	<rect x="74" y="7" width="1" height="1" />
	<rect x="75" y="7" width="1" height="1" />
	<rect x="76" y="7" width="1" height="1" />
	<rect x="77" y="7" width="1" height="1" />
	<rect x="80" y="7" width="1" height="1" />
	<rect x="81" y="7" width="1" height="1" />
	<rect x="82" y="7" width="1" height="1" />
	<rect x="86" y="7" width="1" height="1" />
	<rect x="87" y="7" width="1" height="1" />
	<rect x="88" y="7" width="1" height="1" />
	<rect x="92" y="7" width="1" height="1" />
	<rect x="93" y="7" width="1" height="1" />
	<rect x="94" y="7" width="1" height="1" />
	<rect x="1" y="9" width="1" height="1" />
	<rect x="2" y="9" width="1" height="1" />
	<rect x="3" y="9" width="1" height="1" />
	<rect x="4" y="9" width="1" height="1" />
	<rect x="5" y="9" width="1" height="1" />
	<rect x="8" y="9" width="1" height="1" />
	<rect x="9" y="9" width="1" height="1" />
	<rect x="10" y="9" width="1" height="1" />
	<rect x="13" y="9" width="1" height="1" />
	<rect x="14" y="9" width="1" height="1" />
	<rect x="15" y="9" width="1" height="1" />
	<rect x="16" y="9" width="1" height="1" />
	<rect x="17" y="9" width="1" height="1" />
	<rect x="19" y="9" width="1" height="1" />
	<rect x="20" y="9" width="1" height="1" />
	<rect x="21" y="9" width="1" height="1" />
	<rect x="22" y="9" width="1" height="1" />
	<rect x="23" y="9" width="1" height="1" />
	<rect x="25" y="9" width="1" height="1" />
	<rect x="26" y="9" width="1" height="1" />
	<rect x="27" y="9" width="1" height="1" />
	<rect x="28" y="9" width="1" height="1" />
	<rect x="29" y="9" width="1" height="1" />
	<rect x="31" y="9" width="1" height="1" />
	<rect x="37" y="9" width="1" height="1" />
	<rect x="38" y="9" width="1" height="1" />
	<rect x="39" y="9" width="1" height="1" />
	<rect x="40" y="9" width="1" height="1" />
	<rect x="41" y="9" width="1" height="1" />
	<rect x="43" y="9" width="1" height="1" />
	<rect x="49" y="9" width="1" height="1" />
	<rect x="50" y="9" width="1" height="1" />
	<rect x="51" y="9" width="1" height="1" />
	<rect x="52" y="9" width="1" height="1" />
	<rect x="53" y="9" width="1" height="1" />
	<rect x="57" y="9" width="1" height="1" />
	<rect x="58" y="9" width="1" height="1" />
	<rect x="65" y="9" width="1" height="1" />
	<rect x="91" y="9" width="1" height="1" />
	<rect x="92" y="9" width="1" height="1" />
	<rect x="93" y="9" width="1" height="1" />
	<rect x="94" y="9" width="1" height="1" />
	<rect x="95" y="9" width="1" height="1" />
	<rect x="4" y="10" width="1" height="1" />
	<rect x="7" y="10" width="1" height="1" />
	<rect x="11" y="10" width="1" height="1" />
	<rect x="13" y="10" width="1" height="1" />
	<rect x="22" y="10" width="1" height="1" />
	<rect x="28" y="10" width="1" height="1" />
	<rect x="31" y="10" width="1" height="1" />
	<rect x="41" y="10" width="1" height="1" />
	<rect x="43" y="10" width="1" height="1" />
	<rect x="53" y="10" width="1" height="1" />
	<rect x="56" y="10" width="1" height="1" />
	<rect x="59" y="10" width="1" height="1" />
	<rect x="65" y="10" width="1" height="1" />
	<rect x="91" y="10" width="1" height="1" />
	<rect x="3" y="11" width="1" height="1" />
	<rect x="7" y="11" width="1" height="1" />
	<rect x="11" y="11" width="1" height="1" />
	<rect x="13" y="11" width="1" height="1" />
	<rect x="14" y="11" width="1" height="1" />
	<rect x="15" y="11" width="1" height="1" />
	<rect x="16" y="11" width="1" height="1" />
	<rect x="21" y="11" width="1" height="1" />
	<rect x="27" y="11" width="1" height="1" />
	<rect x="31" y="11" width="1" height="1" />
	<rect x="33" y="11" width="1" height="1" />
	<rect x="34" y="11" width="1" height="1" />
	<rect x="40" y="11" width="1" height="1" />
	<rect x="43" y="11" width="1" height="1" />
	<rect x="45" y="11" width="1" height="1" />
	<rect x="46" y="11" width="1" height="1" />
	<rect x="52" y="11" width="1" height="1" />
	<rect x="56" y="11" width="1" height="1" />
	<rect x="62" y="11" width="1" height="1" />
	<rect x="63" y="11" width="1" height="1" />
	<rect x="65" y="11" width="1" height="1" />
	<rect x="68" y="11" width="1" height="1" />
	<rect x="69" y="11" width="1" height="1" />
	<rect x="70" y="11" width="1" height="1" />
	<rect x="74" y="11" width="1" height="1" />
	<rect x="75" y="11" width="1" height="1" />
	<rect x="76" y="11" width="1" height="1" />
	<rect x="80" y="11" width="1" height="1" />
	<rect x="81" y="11" width="1" height="1" />
	<rect x="82" y="11" width="1" height="1" />
	<rect x="86" y="11" width="1" height="1" />
	<rect x="87" y="11" width="1" height="1" />
	<rect x="88" y="11" width="1" height="1" />
	<rect x="91" y="11" width="1" height="1" />
	<rect x="92" y="11" width="1" height="1" />
	<rect x="93" y="11" width="1" height="1" />
	<rect x="94" y="11" width="1" height="1" />
	<rect x="4" y="12" width="1" height="1" />
	<rect x="8" y="12" width="1" height="1" />
	<rect x="9" y="12" width="1" height="1" />
	<rect x="10" y="12" width="1" height="1" />
	<rect x="17" y="12" width="1" height="1" />
	<rect x="22" y="12" width="1" height="1" />
	<rect x="28" y="12" width="1" height="1" />
	<rect x="31" y="12" width="1" height="1" />
	<rect x="32" y="12" width="1" height="1" />
	<rect x="35" y="12" width="1" height="1" />
	<rect x="39" y="12" width="1" height="1" />
	<rect x="43" y="12" width="1" height="1" />
	<rect x="44" y="12" width="1" height="1" />
	<rect x="47" y="12" width="1" height="1" />
	<rect x="51" y="12" width="1" height="1" />
	<rect x="55" y="12" width="1" height="1" />
	<rect x="56" y="12" width="1" height="1" />
	<rect x="57" y="12" width="1" height="1" />
	<rect x="61" y="12" width="1" height="1" />
	<rect x="64" y="12" width="1" height="1" />
	<rect x="65" y="12" width="1" height="1" />
	<rect x="71" y="12" width="1" height="1" />
	<rect x="77" y="12" width="1" height="1" />
	<rect x="79" y="12" width="1" height="1" />
	<rect x="83" y="12" width="1" height="1" />
	<rect x="85" y="12" width="1" height="1" />
	<rect x="89" y="12" width="1" height="1" />
	<rect x="95" y="12" width="1" height="1" />
	<rect x="5" y="13" width="1" height="1" />
	<rect x="7" y="13" width="1" height="1" />
	<rect x="11" y="13" width="1" height="1" />
	<rect x="17" y="13" width="1" height="1" />
	<rect x="23" y="13" width="1" height="1" />
	<rect x="29" y="13" width="1" height="1" />
	<rect x="31" y="13" width="1" height="1" />
	<rect x="35" y="13" width="1" height="1" />
	<rect x="38" y="13" width="1" height="1" />
	<rect x="43" y="13" width="1" height="1" />
	<rect x="47" y="13" width="1" height="1" />
	<rect x="50" y="13" width="1" height="1" />
	<rect x="56" y="13" width="1" height="1" />
	<rect x="61" y="13" width="1" height="1" />
	<rect x="65" y="13" width="1" height="1" />
	<rect x="68" y="13" width="1" height="1" />
	<rect x="69" y="13" width="1" height="1" />
	<rect x="70" y="13" width="1" height="1" />
	<rect x="71" y="13" width="1" height="1" />
	<rect x="74" y="13" width="1" height="1" />
	<rect x="75" y="13" width="1" height="1" />
	<rect x="76" y="13" width="1" height="1" />
	<rect x="77" y="13" width="1" height="1" />
	<rect x="79" y="13" width="1" height="1" />
	<rect x="80" y="13" width="1" height="1" />
	<rect x="81" y="13" width="1" height="1" />
	<rect x="82" y="13" width="1" height="1" />
	<rect x="83" y="13" width="1" height="1" />
	<rect x="85" y="13" width="1" height="1" />
	<rect x="86" y="13" width="1" height="1" />
	<rect x="87" y="13" width="1" height="1" />
	<rect x="88" y="13" width="1" height="1" />
	<rect x="89" y="13" width="1" height="1" />
	<rect x="95" y="13" width="1" height="1" />
	<rect x="1" y="14" width="1" height="1" />
	<rect x="5" y="14" width="1" height="1" />
	<rect x="7" y="14" width="1" height="1" />
	<rect x="11" y="14" width="1" height="1" />
	<rect x="13" y="14" width="1" height="1" />
	<rect x="17" y="14" width="1" height="1" />
	<rect x="19" y="14" width="1" height="1" />
	<rect x="23" y="14" width="1" height="1" />
	<rect x="25" y="14" width="1" height="1" />
	<rect x="29" y="14" width="1" height="1" />
	<rect x="31" y="14" width="1" height="1" />
	<rect x="35" y="14" width="1" height="1" />
	<rect x="38" y="14" width="1" height="1" />
	<rect x="43" y="14" width="1" height="1" />
	<rect x="47" y="14" width="1" height="1" />
	<rect x="50" y="14" width="1" height="1" />
	<rect x="56" y="14" width="1" height="1" />
	<rect x="61" y="14" width="1" height="1" />
	<rect x="65" y="14" width="1" height="1" />
	<rect x="67" y="14" width="1" height="1" />
	<rect x="71" y="14" width="1" height="1" />
	<rect x="73" y="14" width="1" height="1" />
	<rect x="77" y="14" width="1" height="1" />
	<rect x="79" y="14" width="1" height="1" />
	<rect x="85" y="14" width="1" height="1" />
	<rect x="91" y="14" width="1" height="1" />
	<rect x="95" y="14" width="1" height="1" />
	<rect x="2" y="15" width="1" height="1" />
	<rect x="3" y="15" width="1" height="1" />
	<rect x="4" y="15" width="1" height="1" />
	<rect x="8" y="15" width="1" height="1" />
	<rect x="9" y="15" width="1" height="1" />
	<rect x="10" y="15" width="1" height="1" />
	<rect x="14" y="15" width="1" height="1" />
	<rect x="15" y="15" width="1" height="1" />
	<rect x="16" y="15" width="1" height="1" />
	<rect x="20" y="15" width="1" height="1" />
	<rect x="21" y="15" width="1" height="1" />
	<rect x="22" y="15" width="1" height="1" />
	<rect x="26" y="15" width="1" height="1" />
	<rect x="27" y="15" width="1" height="1" />
	<rect x="28" y="15" width="1" height="1" />
	<rect x="31" y="15" width="1" height="1" />
	<rect x="32" y="15" width="1" height="1" />
	<rect x="33" y="15" width="1" height="1" />
	<rect x="34" y="15" width="1" height="1" />
	<rect x="38" y="15" width="1" height="1" />
	<rect x="43" y="15" width="1" height="1" />
	<rect x="44" y="15" width="1" height="1" />
	<rect x="45" y="15" width="1" height="1" />
	<rect x="46" y="15" width="1" height="1" />
	<rect x="50" y="15" width="1" height="1" />
	<rect x="56" y="15" width="1" height="1" />
	<rect x="62" y="15" width="1" height="1" />
	<rect x="63" y="15" width="1" height="1" />
	<rect x="64" y="15" width="1" height="1" />
	<rect x="65" y="15" width="1" height="1" />
	<rect x="68" y="15" width="1" height="1" />
	<rect x="69" y="15" width="1" height="1" />
	<rect x="70" y="15" width="1" height="1" />
	<rect x="71" y="15" width="1" height="1" />
	<rect x="74" y="15" width="1" height="1" />
	<rect x="75" y="15" width="1" height="1" />
	<rect x="76" y="15" width="1" height="1" />
	<rect x="77" y="15" width="1" height="1" />
	<rect x="80" y="15" width="1" height="1" />
	<rect x="81" y="15" width="1" height="1" />
	<rect x="82" y="15" width="1" height="1" />
	<rect x="86" y="15" width="1" height="1" />
	<rect x="87" y="15" width="1" height="1" />
	<rect x="88" y="15" width="1" height="1" />
	<rect x="92" y="15" width="1" height="1" />
	<rect x="93" y="15" width="1" height="1" />
	<rect x="94" y="15" width="1" height="1" />
	<rect x="1" y="17" width="1" height="1" />
	<rect x="8" y="17" width="1" height="1" />
	<rect x="9" y="17" width="1" height="1" />
	<rect x="10" y="17" width="1" height="1" />
	<rect x="13" y="17" width="1" height="1" />
	<rect x="14" y="17" width="1" height="1" />
	<rect x="15" y="17" width="1" height="1" />
	<rect x="16" y="17" width="1" height="1" />
	<rect x="17" y="17" width="1" height="1" />
	<rect x="21" y="17" width="1" height="1" />
	<rect x="22" y="17" width="1" height="1" />
	<rect x="27" y="17" width="1" height="1" />
	<rect x="28" y="17" width="1" height="1" />
	<rect x="38" y="17" width="1" height="1" />
	<rect x="39" y="17" width="1" height="1" />
	<rect x="40" y="17" width="1" height="1" />
	<rect x="50" y="17" width="1" height="1" />
	<rect x="51" y="17" width="1" height="1" />
	<rect x="52" y="17" width="1" height="1" />
	<rect x="62" y="17" width="1" height="1" />
	<rect x="63" y="17" width="1" height="1" />
	<rect x="64" y="17" width="1" height="1" />
	<rect x="69" y="17" width="1" height="1" />
	<rect x="70" y="17" width="1" height="1" />
	<rect x="74" y="17" width="1" height="1" />
	<rect x="75" y="17" width="1" height="1" />
	<rect x="76" y="17" width="1" height="1" />
	<rect x="81" y="17" width="1" height="1" />
	<rect x="95" y="17" width="1" height="1" />
	<rect x="1" y="18" width="1" height="1" />
	<rect x="7" y="18" width="1" height="1" />
	<rect x="11" y="18" width="1" height="1" />
	<rect x="16" y="18" width="1" height="1" />
	<rect x="20" y="18" width="1" height="1" />
	<rect x="26" y="18" width="1" height="1" />
	<rect x="29" y="18" width="1" height="1" />
	<rect x="37" y="18" width="1" height="1" />
	<rect x="41" y="18" width="1" height="1" />
	<rect x="49" y="18" width="1" height="1" />
	<rect x="53" y="18" width="1" height="1" />
	<rect x="61" y="18" width="1" height="1" />
	<rect x="65" y="18" width="1" height="1" />
	<rect x="68" y="18" width="1" height="1" />
	<rect x="73" y="18" width="1" height="1" />
	<rect x="77" y="18" width="1" height="1" />
	<rect x="80" y="18" width="1" height="1" />
	<rect x="81" y="18" width="1" height="1" />
	<rect x="95" y="18" width="1" height="1" />
	<rect x="1" y="19" width="1" height="1" />
	<rect x="3" y="19" width="1" height="1" />
	<rect x="4" y="19" width="1" height="1" />
	<rect x="11" y="19" width="1" height="1" />
	<rect x="15" y="19" width="1" height="1" />
	<rect x="19" y="19" width="1" height="1" />
	<rect x="26" y="19" width="1" height="1" />
	<rect x="32" y="19" width="1" height="1" />
	<rect x="33" y="19" width="1" height="1" />
	<rect x="34" y="19" width="1" height="1" />
	<rect x="37" y="19" width="1" height="1" />
	<rect x="41" y="19" width="1" height="1" />
	<rect x="44" y="19" width="1" height="1" />
	<rect x="45" y="19" width="1" height="1" />
	<rect x="46" y="19" width="1" height="1" />
	<rect x="49" y="19" width="1" height="1" />
	<rect x="53" y="19" width="1" height="1" />
	<rect x="56" y="19" width="1" height="1" />
	<rect x="57" y="19" width="1" height="1" />
	<rect x="58" y="19" width="1" height="1" />
	<rect x="61" y="19" width="1" height="1" />
	<rect x="65" y="19" width="1" height="1" />
	<rect x="67" y="19" width="1" height="1" />
	<rect x="77" y="19" width="1" height="1" />
	<rect x="81" y="19" width="1" height="1" />
	<rect x="86" y="19" width="1" height="1" />
	<rect x="87" y="19" width="1" height="1" />
	<rect x="88" y="19" width="1" height="1" />
	<rect x="92" y="19" width="1" height="1" />
	<rect x="93" y="19" width="1" height="1" />
	<rect x="95" y="19" width="1" height="1" />
	<rect x="1" y="20" width="1" height="1" />
	<rect x="2" y="20" width="1" height="1" />
	<rect x="5" y="20" width="1" height="1" />
	<rect x="10" y="20" width="1" height="1" />
	<rect x="16" y="20" width="1" height="1" />
	<rect x="19" y="20" width="1" height="1" />
	<rect x="20" y="20" width="1" height="1" />
	<rect x="21" y="20" width="1" height="1" />
	<rect x="22" y="20" width="1" height="1" />
	<rect x="25" y="20" width="1" height="1" />
	<rect x="26" y="20" width="1" height="1" />
	<rect x="27" y="20" width="1" height="1" />
	<rect x="31" y="20" width="1" height="1" />
	<rect x="38" y="20" width="1" height="1" />
	<rect x="39" y="20" width="1" height="1" />
	<rect x="40" y="20" width="1" height="1" />
	<rect x="43" y="20" width="1" height="1" />
	<rect x="47" y="20" width="1" height="1" />
	<rect x="50" y="20" width="1" height="1" />
	<rect x="51" y="20" width="1" height="1" />
	<rect x="52" y="20" width="1" height="1" />
	<rect x="53" y="20" width="1" height="1" />
	<rect x="55" y="20" width="1" height="1" />
	<rect x="59" y="20" width="1" height="1" />
	<rect x="62" y="20" width="1" height="1" />
	<rect x="63" y="20" width="1" height="1" />
	<rect x="64" y="20" width="1" height="1" />
	<rect x="65" y="20" width="1" height="1" />
	<rect x="67" y="20" width="1" height="1" />
	<rect x="68" y="20" width="1" height="1" />
	<rect x="69" y="20" width="1" height="1" />
	<rect x="70" y="20" width="1" height="1" />
	<rect x="76" y="20" width="1" height="1" />
	<rect x="81" y="20" width="1" height="1" />
	<rect x="85" y="20" width="1" height="1" />
	<rect x="89" y="20" width="1" height="1" />
	<rect x="91" y="20" width="1" height="1" />
	<rect x="94" y="20" width="1" height="1" />
	<rect x="95" y="20" width="1" height="1" />
	<rect x="1" y="21" width="1" height="1" />
	<rect x="5" y="21" width="1" height="1" />
	<rect x="9" y="21" width="1" height="1" />
	<rect x="17" y="21" width="1" height="1" />
	<rect x="19" y="21" width="1" height="1" />
	<rect x="23" y="21" width="1" height="1" />
	<rect x="26" y="21" width="1" height="1" />
	<rect x="31" y="21" width="1" height="1" />
	<rect x="37" y="21" width="1" height="1" />
	<rect x="41" y="21" width="1" height="1" />
	<rect x="43" y="21" width="1" height="1" />
	<rect x="44" y="21" width="1" height="1" />
	<rect x="45" y="21" width="1" height="1" />
	<rect x="46" y="21" width="1" height="1" />
	<rect x="47" y="21" width="1" height="1" />
	<rect x="53" y="21" width="1" height="1" />
	<rect x="55" y="21" width="1" height="1" />
	<rect x="56" y="21" width="1" height="1" />
	<rect x="57" y="21" width="1" height="1" />
	<rect x="58" y="21" width="1" height="1" />
	<rect x="59" y="21" width="1" height="1" />
	<rect x="65" y="21" width="1" height="1" />
	<rect x="67" y="21" width="1" height="1" />
	<rect x="71" y="21" width="1" height="1" />
	<rect x="75" y="21" width="1" height="1" />
	<rect x="81" y="21" width="1" height="1" />
	<rect x="85" y="21" width="1" height="1" />
	<rect x="86" y="21" width="1" height="1" />
	<rect x="87" y="21" width="1" height="1" />
	<rect x="88" y="21" width="1" height="1" />
	<rect x="89" y="21" width="1" height="1" />
	<rect x="91" y="21" width="1" height="1" />
	<rect x="95" y="21" width="1" height="1" />
	<rect x="1" y="22" width="1" height="1" />
	<rect x="5" y="22" width="1" height="1" />
	<rect x="8" y="22" width="1" height="1" />
	<rect x="13" y="22" width="1" height="1" />
	<rect x="17" y="22" width="1" height="1" />
	<rect x="19" y="22" width="1" height="1" />
	<rect x="23" y="22" width="1" height="1" />
	<rect x="26" y="22" width="1" height="1" />
	<rect x="31" y="22" width="1" height="1" />
	<rect x="35" y="22" width="1" height="1" />
	<rect x="37" y="22" width="1" height="1" />
	<rect x="41" y="22" width="1" height="1" />
	<rect x="43" y="22" width="1" height="1" />
	<rect x="52" y="22" width="1" height="1" />
	<rect x="55" y="22" width="1" height="1" />
	<rect x="64" y="22" width="1" height="1" />
	<rect x="67" y="22" width="1" height="1" />
	<rect x="71" y="22" width="1" height="1" />
	<rect x="74" y="22" width="1" height="1" />
	<rect x="81" y="22" width="1" height="1" />
	<rect x="85" y="22" width="1" height="1" />
	<rect x="91" y="22" width="1" height="1" />
	<rect x="95" y="22" width="1" height="1" />
	<rect x="1" y="23" width="1" height="1" />
	<rect x="2" y="23" width="1" height="1" />
	<rect x="3" y="23" width="1" height="1" />
	<rect x="4" y="23" width="1" height="1" />
	<rect x="7" y="23" width="1" height="1" />
	<rect x="8" y="23" width="1" height="1" />
	<rect x="9" y="23" width="1" height="1" />
	<rect x="10" y="23" width="1" height="1" />
	<rect x="11" y="23" width="1" height="1" />
	<rect x="14" y="23" width="1" height="1" />
	<rect x="15" y="23" width="1" height="1" />
	<rect x="16" y="23" width="1" height="1" />
	<rect x="20" y="23" width="1" height="1" />
	<rect x="21" y="23" width="1" height="1" />
	<rect x="22" y="23" width="1" height="1" />
	<rect x="26" y="23" width="1" height="1" />
	<rect x="32" y="23" width="1" height="1" />
	<rect x="33" y="23" width="1" height="1" />
	<rect x="34" y="23" width="1" height="1" />
	<rect x="38" y="23" width="1" height="1" />
	<rect x="39" y="23" width="1" height="1" />
	<rect x="40" y="23" width="1" height="1" />
	<rect x="44" y="23" width="1" height="1" />
	<rect x="45" y="23" width="1" height="1" />
	<rect x="46" y="23" width="1" height="1" />
	<rect x="50" y="23" width="1" height="1" />
	<rect x="51" y="23" width="1" height="1" />
	<rect x="56" y="23" width="1" height="1" />
	<rect x="57" y="23" width="1" height="1" />
	<rect x="58" y="23" width="1" height="1" />
	<rect x="62" y="23" width="1" height="1" />
	<rect x="63" y="23" width="1" height="1" />
	<rect x="68" y="23" width="1" height="1" />
	<rect x="69" y="23" width="1" height="1" />
	<rect x="70" y="23" width="1" height="1" />
	<rect x="73" y="23" width="1" height="1" />
	<rect x="74" y="23" width="1" height="1" />
	<rect x="75" y="23" width="1" height="1" />
	<rect x="76" y="23" width="1" height="1" />
	<rect x="77" y="23" width="1" height="1" />
	<rect x="80" y="23" width="1" height="1" />
	<rect x="81" y="23" width="1" height="1" />
	<rect x="82" y="23" width="1" height="1" />
	<rect x="86" y="23" width="1" height="1" />
	<rect x="87" y="23" width="1" height="1" />
	<rect x="88" y="23" width="1" height="1" />
	<rect x="92" y="23" width="1" height="1" />
	<rect x="93" y="23" width="1" height="1" />
	<rect x="94" y="23" width="1" height="1" />
	<rect x="95" y="23" width="1" height="1" />
	<rect x="9" y="25" width="1" height="1" />
	<rect x="13" y="25" width="1" height="1" />
	<rect x="21" y="25" width="1" height="1" />
	<rect x="31" y="25" width="1" height="1" />
	<rect x="32" y="25" width="1" height="1" />
	<rect x="33" y="25" width="1" height="1" />
	<rect x="34" y="25" width="1" height="1" />
	<rect x="35" y="25" width="1" height="1" />
	<rect x="41" y="25" width="1" height="1" />
	<rect x="49" y="25" width="1" height="1" />
	<rect x="50" y="25" width="1" height="1" />
	<rect x="51" y="25" width="1" height="1" />
	<rect x="52" y="25" width="1" height="1" />
	<rect x="53" y="25" width="1" height="1" />
	<rect x="55" y="25" width="1" height="1" />
	<rect x="56" y="25" width="1" height="1" />
	<rect x="57" y="25" width="1" height="1" />
	<rect x="58" y="25" width="1" height="1" />
	<rect x="59" y="25" width="1" height="1" />
	<rect x="61" y="25" width="1" height="1" />
	<rect x="62" y="25" width="1" height="1" />
	<rect x="63" y="25" width="1" height="1" />
	<rect x="64" y="25" width="1" height="1" />
	<rect x="65" y="25" width="1" height="1" />
	<rect x="67" y="25" width="1" height="1" />
	<rect x="68" y="25" width="1" height="1" />
	<rect x="69" y="25" width="1" height="1" />
	<rect x="70" y="25" width="1" height="1" />
	<rect x="71" y="25" width="1" height="1" />
	<rect x="74" y="25" width="1" height="1" />
	<rect x="75" y="25" width="1" height="1" />
	<rect x="76" y="25" width="1" height="1" />
	<rect x="79" y="25" width="1" height="1" />
	<rect x="80" y="25" width="1" height="1" />
	<rect x="81" y="25" width="1" height="1" />
	<rect x="82" y="25" width="1" height="1" />
	<rect x="83" y="25" width="1" height="1" />
	<rect x="85" y="25" width="1" height="1" />
	<rect x="92" y="25" width="1" height="1" />
	<rect x="93" y="25" width="1" height="1" />
	<rect x="94" y="25" width="1" height="1" />
	<rect x="8" y="26" width="1" height="1" />
	<rect x="9" y="26" width="1" height="1" />
	<rect x="13" y="26" width="1" height="1" />
	<rect x="20" y="26" width="1" height="1" />
	<rect x="21" y="26" width="1" height="1" />
	<rect x="34" y="26" width="1" height="1" />
	<rect x="41" y="26" width="1" height="1" />
	<rect x="49" y="26" width="1" height="1" />
	<rect x="59" y="26" width="1" height="1" />
	<rect x="65" y="26" width="1" height="1" />
	<rect x="71" y="26" width="1" height="1" />
	<rect x="73" y="26" width="1" height="1" />
	<rect x="77" y="26" width="1" height="1" />
	<rect x="79" y="26" width="1" height="1" />
	<rect x="85" y="26" width="1" height="1" />
	<rect x="91" y="26" width="1" height="1" />
	<rect x="95" y="26" width="1" height="1" />
	<rect x="2" y="27" width="1" height="1" />
	<rect x="3" y="27" width="1" height="1" />
	<rect x="4" y="27" width="1" height="1" />
	<rect x="9" y="27" width="1" height="1" />
	<rect x="13" y="27" width="1" height="1" />
	<rect x="15" y="27" width="1" height="1" />
	<rect x="16" y="27" width="1" height="1" />
	<rect x="21" y="27" width="1" height="1" />
	<rect x="26" y="27" width="1" height="1" />
	<rect x="27" y="27" width="1" height="1" />
	<rect x="28" y="27" width="1" height="1" />
	<rect x="33" y="27" width="1" height="1" />
	<rect x="38" y="27" width="1" height="1" />
	<rect x="39" y="27" width="1" height="1" />
	<rect x="41" y="27" width="1" height="1" />
	<rect x="44" y="27" width="1" height="1" />
	<rect x="45" y="27" width="1" height="1" />
	<rect x="46" y="27" width="1" height="1" />
	<rect x="49" y="27" width="1" height="1" />
	<rect x="50" y="27" width="1" height="1" />
	<rect x="51" y="27" width="1" height="1" />
	<rect x="52" y="27" width="1" height="1" />
	<rect x="58" y="27" width="1" height="1" />
	<rect x="64" y="27" width="1" height="1" />
	<rect x="70" y="27" width="1" height="1" />
	<rect x="73" y="27" width="1" height="1" />
	<rect x="77" y="27" width="1" height="1" />
	<rect x="79" y="27" width="1" height="1" />
	<rect x="80" y="27" width="1" height="1" />
	<rect x="81" y="27" width="1" height="1" />
	<rect x="82" y="27" width="1" height="1" />
	<rect x="85" y="27" width="1" height="1" />
	<rect x="87" y="27" width="1" height="1" />
	<rect x="88" y="27" width="1" height="1" />
	<rect x="91" y="27" width="1" height="1" />
	<rect x="95" y="27" width="1" height="1" />
	<rect x="1" y="28" width="1" height="1" />
	<rect x="9" y="28" width="1" height="1" />
	<rect x="13" y="28" width="1" height="1" />
	<rect x="14" y="28" width="1" height="1" />
	<rect x="17" y="28" width="1" height="1" />
	<rect x="21" y="28" width="1" height="1" />
	<rect x="25" y="28" width="1" height="1" />
	<rect x="34" y="28" width="1" height="1" />
	<rect x="37" y="28" width="1" height="1" />
	<rect x="40" y="28" width="1" height="1" />
	<rect x="41" y="28" width="1" height="1" />
	<rect x="47" y="28" width="1" height="1" />
	<rect x="53" y="28" width="1" height="1" />
	<rect x="57" y="28" width="1" height="1" />
	<rect x="63" y="28" width="1" height="1" />
	<rect x="69" y="28" width="1" height="1" />
	<rect x="74" y="28" width="1" height="1" />
	<rect x="75" y="28" width="1" height="1" />
	<rect x="76" y="28" width="1" height="1" />
	<rect x="83" y="28" width="1" height="1" />
	<rect x="85" y="28" width="1" height="1" />
	<rect x="86" y="28" width="1" height="1" />
	<rect x="89" y="28" width="1" height="1" />
	<rect x="92" y="28" width="1" height="1" />
	<rect x="93" y="28" width="1" height="1" />
	<rect x="94" y="28" width="1" height="1" />
	<rect x="1" y="29" width="1" height="1" />
	<rect x="9" y="29" width="1" height="1" />
	<rect x="13" y="29" width="1" height="1" />
	<rect x="17" y="29" width="1" height="1" />
	<rect x="21" y="29" width="1" height="1" />
	<rect x="25" y="29" width="1" height="1" />
	<rect x="35" y="29" width="1" height="1" />
	<rect x="37" y="29" width="1" height="1" />
	<rect x="41" y="29" width="1" height="1" />
	<rect x="44" y="29" width="1" height="1" />
	<rect x="45" y="29" width="1" height="1" />
	<rect x="46" y="29" width="1" height="1" />
	<rect x="47" y="29" width="1" height="1" />
	<rect x="53" y="29" width="1" height="1" />
	<rect x="56" y="29" width="1" height="1" />
	<rect x="62" y="29" width="1" height="1" />
	<rect x="68" y="29" width="1" height="1" />
	<rect x="73" y="29" width="1" height="1" />
	<rect x="77" y="29" width="1" height="1" />
	<rect x="83" y="29" width="1" height="1" />
	<rect x="85" y="29" width="1" height="1" />
	<rect x="89" y="29" width="1" height="1" />
	<rect x="91" y="29" width="1" height="1" />
	<rect x="95" y="29" width="1" height="1" />
	<rect x="1" y="30" width="1" height="1" />
	<rect x="5" y="30" width="1" height="1" />
	<rect x="9" y="30" width="1" height="1" />
	<rect x="13" y="30" width="1" height="1" />
	<rect x="17" y="30" width="1" height="1" />
	<rect x="21" y="30" width="1" height="1" />
	<rect x="25" y="30" width="1" height="1" />
	<rect x="29" y="30" width="1" height="1" />
	<rect x="31" y="30" width="1" height="1" />
	<rect x="35" y="30" width="1" height="1" />
	<rect x="37" y="30" width="1" height="1" />
	<rect x="41" y="30" width="1" height="1" />
	<rect x="43" y="30" width="1" height="1" />
	<rect x="47" y="30" width="1" height="1" />
	<rect x="49" y="30" width="1" height="1" />
	<rect x="53" y="30" width="1" height="1" />
	<rect x="56" y="30" width="1" height="1" />
	<rect x="62" y="30" width="1" height="1" />
	<rect x="68" y="30" width="1" height="1" />
	<rect x="73" y="30" width="1" height="1" />
	<rect x="77" y="30" width="1" height="1" />
	<rect x="79" y="30" width="1" height="1" />
	<rect x="83" y="30" width="1" height="1" />
	<rect x="85" y="30" width="1" height="1" />
	<rect x="89" y="30" width="1" height="1" />
	<rect x="91" y="30" width="1" height="1" />
	<rect x="95" y="30" width="1" height="1" />
	<rect x="2" y="31" width="1" height="1" />
	<rect x="3" y="31" width="1" height="1" />
	<rect x="4" y="31" width="1" height="1" />
	<rect x="8" y="31" width="1" height="1" />
	<rect x="9" y="31" width="1" height="1" />
	<rect x="10" y="31" width="1" height="1" />
	<rect x="13" y="31" width="1" height="1" />
	<rect x="14" y="31" width="1" height="1" />
	<rect x="15" y="31" width="1" height="1" />
	<rect x="16" y="31" width="1" height="1" />
	<rect x="20" y="31" width="1" height="1" />
	<rect x="21" y="31" width="1" height="1" />
	<rect x="22" y="31" width="1" height="1" />
	<rect x="26" y="31" width="1" height="1" />
	<rect x="27" y="31" width="1" height="1" />
	<rect x="28" y="31" width="1" height="1" />
	<rect x="32" y="31" width="1" height="1" />
	<rect x="33" y="31" width="1" height="1" />
	<rect x="34" y="31" width="1" height="1" />
	<rect x="38" y="31" width="1" height="1" />
	<rect x="39" y="31" width="1" height="1" />
	<rect x="40" y="31" width="1" height="1" />
	<rect x="41" y="31" width="1" height="1" />
	<rect x="44" y="31" width="1" height="1" />
	<rect x="45" y="31" width="1" height="1" />
	<rect x="46" y="31" width="1" height="1" />
	<rect x="47" y="31" width="1" height="1" />
	<rect x="50" y="31" width="1" height="1" />
	<rect x="51" y="31" width="1" height="1" />
	<rect x="52" y="31" width="1" height="1" />
	<rect x="56" y="31" width="1" height="1" />
	<rect x="62" y="31" width="1" height="1" />
	<rect x="68" y="31" width="1" height="1" />
	<rect x="74" y="31" width="1" height="1" />
	<rect x="75" y="31" width="1" height="1" />
	<rect x="76" y="31" width="1" height="1" />
	<rect x="80" y="31" width="1" height="1" />
	<rect x="81" y="31" width="1" height="1" />
	<rect x="82" y="31" width="1" height="1" />
	<rect x="85" y="31" width="1" height="1" />
	<rect x="86" y="31" width="1" height="1" />
	<rect x="87" y="31" width="1" height="1" />
	<rect x="88" y="31" width="1" height="1" />
	<rect x="92" y="31" width="1" height="1" />
	<rect x="93" y="31" width="1" height="1" />
	<rect x="94" y="31" width="1" height="1" />
	<rect x="5" y="33" width="1" height="1" />
	<rect x="8" y="33" width="1" height="1" />
	<rect x="9" y="33" width="1" height="1" />
	<rect x="10" y="33" width="1" height="1" />
	<rect x="20" y="33" width="1" height="1" />
	<rect x="21" y="33" width="1" height="1" />
	<rect x="22" y="33" width="1" height="1" />
	<rect x="25" y="33" width="1" height="1" />
	<rect x="26" y="33" width="1" height="1" />
	<rect x="5" y="34" width="1" height="1" />
	<rect x="7" y="34" width="1" height="1" />
	<rect x="11" y="34" width="1" height="1" />
	<rect x="19" y="34" width="1" height="1" />
	<rect x="23" y="34" width="1" height="1" />
	<rect x="27" y="34" width="1" height="1" />
	<rect x="2" y="35" width="1" height="1" />
	<rect x="3" y="35" width="1" height="1" />
	<rect x="5" y="35" width="1" height="1" />
	<rect x="7" y="35" width="1" height="1" />
	<rect x="11" y="35" width="1" height="1" />
	<rect x="14" y="35" width="1" height="1" />
	<rect x="15" y="35" width="1" height="1" />
	<rect x="16" y="35" width="1" height="1" />
	<rect x="19" y="35" width="1" height="1" />
	<rect x="23" y="35" width="1" height="1" />
	<rect x="27" y="35" width="1" height="1" />
	<rect x="1" y="36" width="1" height="1" />
	<rect x="4" y="36" width="1" height="1" />
	<rect x="5" y="36" width="1" height="1" />
	<rect x="8" y="36" width="1" height="1" />
	<rect x="9" y="36" width="1" height="1" />
	<rect x="10" y="36" width="1" height="1" />
	<rect x="17" y="36" width="1" height="1" />
	<rect x="20" y="36" width="1" height="1" />
	<rect x="21" y="36" width="1" height="1" />
	<rect x="22" y="36" width="1" height="1" />
	<rect x="23" y="36" width="1" height="1" />
	<rect x="28" y="36" width="1" height="1" />
	<rect x="1" y="37" width="1" height="1" />
	<rect x="5" y="37" width="1" height="1" />
	<rect x="7" y="37" width="1" height="1" />
	<rect x="11" y="37" width="1" height="1" />
	<rect x="14" y="37" width="1" height="1" />
	<rect x="15" y="37" width="1" height="1" />
	<rect x="16" y="37" width="1" height="1" />
	<rect x="17" y="37" width="1" height="1" />
	<rect x="23" y="37" width="1" height="1" />
	<rect x="27" y="37" width="1" height="1" />
	<rect x="1" y="38" width="1" height="1" />
	<rect x="5" y="38" width="1" height="1" />
	<rect x="7" y="38" width="1" height="1" />
	<rect x="11" y="38" width="1" height="1" />
	<rect x="13" y="38" width="1" height="1" />
	<rect x="17" y="38" width="1" height="1" />
	<rect x="22" y="38" width="1" height="1" />
	<rect x="27" y="38" width="1" height="1" />
	<rect x="2" y="39" width="1" height="1" />
	<rect x="3" y="39" width="1" height="1" />
	<rect x="4" y="39" width="1" height="1" />
	<rect x="5" y="39" width="1" height="1" />
	<rect x="8" y="39" width="1" height="1" />
	<rect x="9" y="39" width="1" height="1" />
	<rect x="10" y="39" width="1" height="1" />
	<rect x="14" y="39" width="1" height="1" />
	<rect x="15" y="39" width="1" height="1" />
	<rect x="16" y="39" width="1" height="1" />
	<rect x="17" y="39" width="1" height="1" />
	<rect x="20" y="39" width="1" height="1" />
	<rect x="21" y="39" width="1" height="1" />
	<rect x="25" y="39" width="1" height="1" />
	<rect x="26" y="39" width="1" height="1" />
</svg>
