<?xml version="1.0" encoding="UTF-8" ?>
<svg width="96" height="64" viewBox="0 0 96 64" xmlns="http://www.w3.org/2000/svg">
	<rect x="1" y="1" width="1" height="1" />
	<rect x="5" y="1" width="1" height="1" />
	<rect x="14" y="1" width="1" height="1" />
	<rect x="15" y="1" width="1" height="1" />
	<rect x="20" y="1" width="1" height="1" />
	<rect x="21" y="1" width="1" height="1" />
	<rect x="62" y="1" width="1" height="1" />
	<rect x="63" y="1" width="1" height="1" />
	<rect x="71" y="1" width="1" height="1" />
	<rect x="72" y="1" width="1" height="1" />
	<rect x="73" y="1" width="1" height="1" />
	<rect x="74" y="1" width="1" height="1" />
	<rect x="75" y="1" width="1" height="1" />
	<rect x="1" y="2" width="1" height="1" />
	<rect x="5" y="2" width="1" height="1" />
	<rect x="15" y="2" width="1" height="1" />
	<rect x="21" y="2" width="1" height="1" />
	<rect x="63" y="2" width="1" height="1" />
	<rect x="71" y="2" width="1" height="1" />
	<rect x="72" y="2" width="1" height="1" />
	<rect x="76" y="2" width="1" height="1" />
	<rect x="1" y="3" width="1" height="1" />
	<rect x="5" y="3" width="1" height="1" />
	<rect x="8" y="3" width="1" height="1" />
	<rect x="9" y="3" width="1" height="1" />
	<rect x="10" y="3" width="1" height="1" />
	<rect x="15" y="3" width="1" height="1" />
	<rect x="21" y="3" width="1" height="1" />
	<rect x="26" y="3" width="1" height="1" />
	<rect x="27" y="3" width="1" height="1" />
	<rect x="28" y="3" width="1" height="1" />
	<rect x="43" y="3" width="1" height="1" />
	<rect x="47" y="3" width="1" height="1" />
	<rect x="50" y="3" width="1" height="1" />
	<rect x="51" y="3" width="1" height="1" />
	<rect x="52" y="3" width="1" height="1" />
	<rect x="55" y="3" width="1" height="1" />
	<rect x="57" y="3" width="1" height="1" />
	<rect x="58" y="3" width="1" height="1" />
	<rect x="63" y="3" width="1" height="1" />
	<rect x="68" y="3" width="1" height="1" />
	<rect x="69" y="3" width="1" height="1" />
	<rect x="71" y="3" width="1" height="1" />
	<rect x="72" y="3" width="1" height="1" />
	<rect x="76" y="3" width="1" height="1" />
	<rect x="79" y="3" width="1" height="1" />
	<rect x="80" y="3" width="1" height="1" />
	<rect x="81" y="3" width="1" height="1" />
	<rect x="84" y="3" width="1" height="1" />
	<rect x="86" y="3" width="1" height="1" />
	<rect x="87" y="3" width="1" height="1" />
	<rect x="91" y="3" width="1" height="1" />
	<rect x="92" y="3" width="1" height="1" />
	<rect x="93" y="3" width="1" height="1" />
	<rect x="1" y="4" width="1" height="1" />
	<rect x="2" y="4" width="1" height="1" />
	<rect x="3" y="4" width="1" height="1" />
	<rect x="4" y="4" width="1" height="1" />
	<rect x="5" y="4" width="1" height="1" />
	<rect x="7" y="4" width="1" height="1" />
	<rect x="11" y="4" width="1" height="1" />
	<rect x="15" y="4" width="1" height="1" />
	<rect x="21" y="4" width="1" height="1" />
	<rect x="25" y="4" width="1" height="1" />
	<rect x="29" y="4" width="1" height="1" />
	<rect x="43" y="4" width="1" height="1" />
	<rect x="47" y="4" width="1" height="1" />
	<rect x="49" y="4" width="1" height="1" />
	<rect x="53" y="4" width="1" height="1" />
	<rect x="55" y="4" width="1" height="1" />
	<rect x="56" y="4" width="1" height="1" />
	<rect x="59" y="4" width="1" height="1" />
	<rect x="63" y="4" width="1" height="1" />
	<rect x="67" y="4" width="1" height="1" />
	<rect x="70" y="4" width="1" height="1" />
	<rect x="71" y="4" width="1" height="1" />
	<rect x="72" y="4" width="1" height="1" />
	<rect x="76" y="4" width="1" height="1" />
	<rect x="78" y="4" width="1" height="1" />
	<rect x="82" y="4" width="1" height="1" />
	<rect x="84" y="4" width="1" height="1" />
	<rect x="85" y="4" width="1" height="1" />
	<rect x="88" y="4" width="1" height="1" />
	<rect x="90" y="4" width="1" height="1" />
	<rect x="94" y="4" width="1" height="1" />
	<rect x="1" y="5" width="1" height="1" />
	<rect x="5" y="5" width="1" height="1" />
	<rect x="7" y="5" width="1" height="1" />
	<rect x="8" y="5" width="1" height="1" />
	<rect x="9" y="5" width="1" height="1" />
	<rect x="10" y="5" width="1" height="1" />
	<rect x="11" y="5" width="1" height="1" />
	<rect x="15" y="5" width="1" height="1" />
	<rect x="21" y="5" width="1" height="1" />
	<rect x="25" y="5" width="1" height="1" />
	<rect x="29" y="5" width="1" height="1" />
	<rect x="32" y="5" width="1" height="1" />
	<rect x="33" y="5" width="1" height="1" />
	<rect x="43" y="5" width="1" height="1" />
	<rect x="45" y="5" width="1" height="1" />
	<rect x="47" y="5" width="1" height="1" />
	<rect x="49" y="5" width="1" height="1" />
	<rect x="53" y="5" width="1" height="1" />
	<rect x="55" y="5" width="1" height="1" />
	<rect x="63" y="5" width="1" height="1" />
	<rect x="67" y="5" width="1" height="1" />
	<rect x="71" y="5" width="1" height="1" />
	<rect x="72" y="5" width="1" height="1" />
	<rect x="76" y="5" width="1" height="1" />
	<rect x="78" y="5" width="1" height="1" />
	<rect x="82" y="5" width="1" height="1" />
	<rect x="84" y="5" width="1" height="1" />
	<rect x="88" y="5" width="1" height="1" />
	<rect x="90" y="5" width="1" height="1" />
	<rect x="91" y="5" width="1" height="1" />
	<rect x="92" y="5" width="1" height="1" />
	<rect x="93" y="5" width="1" height="1" />
	<rect x="94" y="5" width="1" height="1" />
	<rect x="1" y="6" width="1" height="1" />
	<rect x="5" y="6" width="1" height="1" />
	<rect x="7" y="6" width="1" height="1" />
	<rect x="15" y="6" width="1" height="1" />
	<rect x="21" y="6" width="1" height="1" />
	<rect x="25" y="6" width="1" height="1" />
	<rect x="29" y="6" width="1" height="1" />
	<rect x="33" y="6" width="1" height="1" />
	<rect x="43" y="6" width="1" height="1" />
	<rect x="45" y="6" width="1" height="1" />
	<rect x="47" y="6" width="1" height="1" />
	<rect x="49" y="6" width="1" height="1" />
	<rect x="53" y="6" width="1" height="1" />
	<rect x="55" y="6" width="1" height="1" />
	<rect x="63" y="6" width="1" height="1" />
	<rect x="67" y="6" width="1" height="1" />
	<rect x="71" y="6" width="1" height="1" />
	<rect x="72" y="6" width="1" height="1" />
	<rect x="76" y="6" width="1" height="1" />
	<rect x="78" y="6" width="1" height="1" />
	<rect x="82" y="6" width="1" height="1" />
	<rect x="84" y="6" width="1" height="1" />
	<rect x="88" y="6" width="1" height="1" />
	<rect x="90" y="6" width="1" height="1" />
	<rect x="1" y="7" width="1" height="1" />
	<rect x="5" y="7" width="1" height="1" />
	<rect x="8" y="7" width="1" height="1" />
	<rect x="9" y="7" width="1" height="1" />
	<rect x="10" y="7" width="1" height="1" />
	<rect x="14" y="7" width="1" height="1" />
	<rect x="15" y="7" width="1" height="1" />
	<rect x="16" y="7" width="1" height="1" />
	<rect x="20" y="7" width="1" height="1" />
	<rect x="21" y="7" width="1" height="1" />
	<rect x="22" y="7" width="1" height="1" />
	<rect x="26" y="7" width="1" height="1" />
	<rect x="27" y="7" width="1" height="1" />
	<rect x="28" y="7" width="1" height="1" />
	<rect x="32" y="7" width="1" height="1" />
	<rect x="44" y="7" width="1" height="1" />
	<rect x="46" y="7" width="1" height="1" />
	<rect x="50" y="7" width="1" height="1" />
	<rect x="51" y="7" width="1" height="1" />
	<rect x="52" y="7" width="1" height="1" />
	<rect x="55" y="7" width="1" height="1" />
	<rect x="62" y="7" width="1" height="1" />
	<rect x="63" y="7" width="1" height="1" />
	<rect x="64" y="7" width="1" height="1" />
	<rect x="68" y="7" width="1" height="1" />
	<rect x="69" y="7" width="1" height="1" />
	<rect x="70" y="7" width="1" height="1" />
	<rect x="71" y="7" width="1" height="1" />
	<rect x="72" y="7" width="1" height="1" />
	<rect x="73" y="7" width="1" height="1" />
	<rect x="74" y="7" width="1" height="1" />
	<rect x="75" y="7" width="1" height="1" />
	<rect x="79" y="7" width="1" height="1" />
	<rect x="80" y="7" width="1" height="1" />
	<rect x="81" y="7" width="1" height="1" />
	<rect x="84" y="7" width="1" height="1" />
	<rect x="88" y="7" width="1" height="1" />
	<rect x="91" y="7" width="1" height="1" />
	<rect x="92" y="7" width="1" height="1" />
	<rect x="93" y="7" width="1" height="1" />
	<rect x="1" y="10" width="1" height="1" />
	<rect x="2" y="10" width="1" height="1" />
	<rect x="3" y="10" width="1" height="1" />
	<rect x="4" y="10" width="1" height="1" />
	<rect x="5" y="10" width="1" height="1" />
	<rect x="1" y="11" width="1" height="1" />
	<rect x="2" y="11" width="1" height="1" />
	<rect x="3" y="11" width="1" height="1" />
	<rect x="4" y="11" width="1" height="1" />
	<rect x="5" y="11" width="1" height="1" />
	<rect x="1" y="12" width="1" height="1" />
	<rect x="2" y="12" width="1" height="1" />
	<rect x="3" y="12" width="1" height="1" />
	<rect x="4" y="12" width="1" height="1" />
	<rect x="5" y="12" width="1" height="1" />
	<rect x="1" y="13" width="1" height="1" />
	<rect x="2" y="13" width="1" height="1" />
	<rect x="3" y="13" width="1" height="1" />
	<rect x="4" y="13" width="1" height="1" />
	<rect x="5" y="13" width="1" height="1" />
	<rect x="1" y="14" width="1" height="1" />
	<rect x="2" y="14" width="1" height="1" />
	<rect x="3" y="14" width="1" height="1" />
	<rect x="4" y="14" width="1" height="1" />
	<rect x="5" y="14" width="1" height="1" />
	<rect x="1" y="15" width="1" height="1" />
	<rect x="2" y="15" width="1" height="1" />
	<rect x="3" y="15" width="1" height="1" />
	<rect x="4" y="15" width="1" height="1" />
	<rect x="5" y="15" width="1" height="1" />
	<rect x="1" y="16" width="1" height="1" />
	<rect x="2" y="16" width="1" height="1" />
	<rect x="3" y="16" width="1" height="1" />
	<rect x="4" y="16" width="1" height="1" />
	<rect x="5" y="16" width="1" height="1" />
</svg>
