<?xml version="1.0" encoding="UTF-8" ?>
<svg width="96" height="64" viewBox="0 0 96 64" xmlns="http://www.w3.org/2000/svg">
	<rect x="2" y="1" width="1" height="1" />
	<rect x="3" y="1" width="1" height="1" />
	<rect x="4" y="1" width="1" height="1" />
	<rect x="22" y="1" width="1" height="1" />
	<rect x="50" y="1" width="1" height="1" />
	<rect x="51" y="1" width="1" height="1" />
	<rect x="52" y="1" width="1" height="1" />
	<rect x="56" y="1" width="1" height="1" />
	<rect x="57" y="1" width="1" height="1" />
	<rect x="58" y="1" width="1" height="1" />
	<rect x="61" y="1" width="1" height="1" />
	<rect x="62" y="1" width="1" height="1" />
	<rect x="63" y="1" width="1" height="1" />
	<rect x="64" y="1" width="1" height="1" />
	<rect x="65" y="1" width="1" height="1" />
	<rect x="67" y="1" width="1" height="1" />
	<rect x="68" y="1" width="1" height="1" />
	<rect x="69" y="1" width="1" height="1" />
	<rect x="70" y="1" width="1" height="1" />
	<rect x="71" y="1" width="1" height="1" />
	<rect x="1" y="2" width="1" height="1" />
	<rect x="5" y="2" width="1" height="1" />
	<rect x="21" y="2" width="1" height="1" />
	<rect x="38" y="2" width="1" height="1" />
	<rect x="39" y="2" width="1" height="1" />
	<rect x="40" y="2" width="1" height="1" />
	<rect x="41" y="2" width="1" height="1" />
	<rect x="51" y="2" width="1" height="1" />
	<rect x="55" y="2" width="1" height="1" />
	<rect x="59" y="2" width="1" height="1" />
	<rect x="63" y="2" width="1" height="1" />
	<rect x="67" y="2" width="1" height="1" />
	<rect x="1" y="3" width="1" height="1" />
	<rect x="5" y="3" width="1" height="1" />
	<rect x="8" y="3" width="1" height="1" />
	<rect x="9" y="3" width="1" height="1" />
	<rect x="10" y="3" width="1" height="1" />
	<rect x="13" y="3" width="1" height="1" />
	<rect x="14" y="3" width="1" height="1" />
	<rect x="16" y="3" width="1" height="1" />
	<rect x="20" y="3" width="1" height="1" />
	<rect x="25" y="3" width="1" height="1" />
	<rect x="26" y="3" width="1" height="1" />
	<rect x="27" y="3" width="1" height="1" />
	<rect x="28" y="3" width="1" height="1" />
	<rect x="31" y="3" width="1" height="1" />
	<rect x="33" y="3" width="1" height="1" />
	<rect x="34" y="3" width="1" height="1" />
	<rect x="37" y="3" width="1" height="1" />
	<rect x="41" y="3" width="1" height="1" />
	<rect x="43" y="3" width="1" height="1" />
	<rect x="44" y="3" width="1" height="1" />
	<rect x="46" y="3" width="1" height="1" />
	<rect x="51" y="3" width="1" height="1" />
	<rect x="55" y="3" width="1" height="1" />
	<rect x="63" y="3" width="1" height="1" />
	<rect x="67" y="3" width="1" height="1" />
	<rect x="1" y="4" width="1" height="1" />
	<rect x="2" y="4" width="1" height="1" />
	<rect x="3" y="4" width="1" height="1" />
	<rect x="4" y="4" width="1" height="1" />
	<rect x="5" y="4" width="1" height="1" />
	<rect x="7" y="4" width="1" height="1" />
	<rect x="13" y="4" width="1" height="1" />
	<rect x="15" y="4" width="1" height="1" />
	<rect x="17" y="4" width="1" height="1" />
	<rect x="20" y="4" width="1" height="1" />
	<rect x="25" y="4" width="1" height="1" />
	<rect x="29" y="4" width="1" height="1" />
	<rect x="31" y="4" width="1" height="1" />
	<rect x="32" y="4" width="1" height="1" />
	<rect x="35" y="4" width="1" height="1" />
	<rect x="37" y="4" width="1" height="1" />
	<rect x="41" y="4" width="1" height="1" />
	<rect x="43" y="4" width="1" height="1" />
	<rect x="45" y="4" width="1" height="1" />
	<rect x="47" y="4" width="1" height="1" />
	<rect x="51" y="4" width="1" height="1" />
	<rect x="55" y="4" width="1" height="1" />
	<rect x="63" y="4" width="1" height="1" />
	<rect x="67" y="4" width="1" height="1" />
	<rect x="68" y="4" width="1" height="1" />
	<rect x="69" y="4" width="1" height="1" />
	<rect x="70" y="4" width="1" height="1" />
	<rect x="1" y="5" width="1" height="1" />
	<rect x="5" y="5" width="1" height="1" />
	<rect x="8" y="5" width="1" height="1" />
	<rect x="9" y="5" width="1" height="1" />
	<rect x="10" y="5" width="1" height="1" />
	<rect x="13" y="5" width="1" height="1" />
	<rect x="15" y="5" width="1" height="1" />
	<rect x="17" y="5" width="1" height="1" />
	<rect x="20" y="5" width="1" height="1" />
	<rect x="25" y="5" width="1" height="1" />
	<rect x="26" y="5" width="1" height="1" />
	<rect x="27" y="5" width="1" height="1" />
	<rect x="28" y="5" width="1" height="1" />
	<rect x="31" y="5" width="1" height="1" />
	<rect x="38" y="5" width="1" height="1" />
	<rect x="39" y="5" width="1" height="1" />
	<rect x="40" y="5" width="1" height="1" />
	<rect x="41" y="5" width="1" height="1" />
	<rect x="43" y="5" width="1" height="1" />
	<rect x="45" y="5" width="1" height="1" />
	<rect x="47" y="5" width="1" height="1" />
	<rect x="51" y="5" width="1" height="1" />
	<rect x="55" y="5" width="1" height="1" />
	<rect x="63" y="5" width="1" height="1" />
	<rect x="67" y="5" width="1" height="1" />
	<rect x="1" y="6" width="1" height="1" />
	<rect x="5" y="6" width="1" height="1" />
	<rect x="11" y="6" width="1" height="1" />
	<rect x="13" y="6" width="1" height="1" />
	<rect x="17" y="6" width="1" height="1" />
	<rect x="21" y="6" width="1" height="1" />
	<rect x="25" y="6" width="1" height="1" />
	<rect x="31" y="6" width="1" height="1" />
	<rect x="41" y="6" width="1" height="1" />
	<rect x="43" y="6" width="1" height="1" />
	<rect x="47" y="6" width="1" height="1" />
	<rect x="51" y="6" width="1" height="1" />
	<rect x="55" y="6" width="1" height="1" />
	<rect x="59" y="6" width="1" height="1" />
	<rect x="63" y="6" width="1" height="1" />
	<rect x="67" y="6" width="1" height="1" />
	<rect x="1" y="7" width="1" height="1" />
	<rect x="5" y="7" width="1" height="1" />
	<rect x="7" y="7" width="1" height="1" />
	<rect x="8" y="7" width="1" height="1" />
	<rect x="9" y="7" width="1" height="1" />
	<rect x="10" y="7" width="1" height="1" />
	<rect x="13" y="7" width="1" height="1" />
	<rect x="17" y="7" width="1" height="1" />
	<rect x="22" y="7" width="1" height="1" />
	<rect x="25" y="7" width="1" height="1" />
	<rect x="31" y="7" width="1" height="1" />
	<rect x="38" y="7" width="1" height="1" />
	<rect x="39" y="7" width="1" height="1" />
	<rect x="40" y="7" width="1" height="1" />
	<rect x="43" y="7" width="1" height="1" />
	<rect x="47" y="7" width="1" height="1" />
	<rect x="50" y="7" width="1" height="1" />
	<rect x="51" y="7" width="1" height="1" />
	<rect x="52" y="7" width="1" height="1" />
	<rect x="56" y="7" width="1" height="1" />
	<rect x="57" y="7" width="1" height="1" />
	<rect x="58" y="7" width="1" height="1" />
	<rect x="63" y="7" width="1" height="1" />
	<rect x="67" y="7" width="1" height="1" />
</svg>
